<svg id="Layer_1" data-name="Layer 1" xmlns="http://www.w3.org/2000/svg" width="2246.2604" height="661.7341" viewBox="0 0 2246.2604 661.7341"><defs><style>.cls-1{fill:none;stroke:#000;stroke-miterlimit:10;stroke-width:10px;}</style></defs><title>anaquel-logos</title><path d="M210.1912,485.75H71.907L48.3992,565.9547H6.9138l97.7207-322.6621h72.83l97.72,322.6621H233.7ZM138.2839,259.8863,82.51,449.7965H199.59l-55.7744-189.91Z"/><path d="M358.155,565.9547H322.2009v-228.63H358.155v38.72h5.5313q21.1962-45.1685,73.751-45.1728,39.6372,0,63.1494,24.6611,23.5092,24.6636,23.5088,73.9815v136.44H488.1414V436.8893q0-35.9532-16.1329-53.9307-16.1411-17.9766-43.79-17.9766-32.7348,0-51.3955,22.3555-18.6679,22.3638-18.668,59.6934Z"/><path d="M770.241,527.235H764.71q-11.0625,23.0552-30.6533,34.11a82.6927,82.6927,0,0,1-41.2539,11.0625,113.6955,113.6955,0,0,1-41.9463-7.6054,95.0435,95.0435,0,0,1-33.88-22.586q-14.52-14.9736-22.8164-36.6455-8.2983-21.6606-8.2978-50.2432v-7.375q0-28.11,8.2978-49.7822,8.297-21.6606,22.8164-36.6455a97.8666,97.8666,0,0,1,33.88-22.8164,108.3232,108.3232,0,0,1,41.0244-7.8369q23.5079,0,42.6367,10.3721,19.1222,10.371,30.1924,32.0351h5.5313V337.3248h35.9541V518.9381q0,13.8282,12.4453,13.8281h11.5234v33.1885h-24.43q-15.6766,0-25.583-10.1406-9.917-10.1338-9.91-25.8135ZM696.49,538.2975a72.87,72.87,0,0,0,29.7305-5.9922,65.7755,65.7755,0,0,0,23.2783-17.0547A81.42,81.42,0,0,0,764.71,488.7457a101.2318,101.2318,0,0,0,5.5313-34.34v-5.5313a99.8589,99.8589,0,0,0-5.5313-33.88A79.3367,79.3367,0,0,0,749.2683,388.49,70.8391,70.8391,0,0,0,725.76,371.2047,69.517,69.517,0,0,0,696.49,364.982a71.3531,71.3531,0,0,0-29.501,5.9922,70.13,70.13,0,0,0-23.2773,16.8243,76.665,76.665,0,0,0-15.4424,26.2744,99.8579,99.8579,0,0,0-5.5313,33.88v7.375q0,39.1832,20.5127,61.0752Q663.7557,538.301,696.49,538.2975Z"/><path d="M1061.5583,530.9225h-5.5312a70.9,70.9,0,0,1-14.52,18.208,94.836,94.836,0,0,1-18.4375,12.9062,84.9117,84.9117,0,0,1-20.7432,7.836,92.2387,92.2387,0,0,1-20.9727,2.5351,115.56,115.56,0,0,1-42.8681-7.8359,102.9139,102.9139,0,0,1-34.8018-22.5859q-14.9838-14.7482-23.5078-36.6456-8.5356-21.8877-8.5273-50.0127v-7.375q0-27.6576,8.7578-49.5517,8.751-21.8877,23.5078-36.876a99.1467,99.1467,0,0,1,34.5713-22.8164,113.0731,113.0731,0,0,1,41.9463-7.8369,90.2532,90.2532,0,0,1,43.5595,10.833,81.1449,81.1449,0,0,1,32.0352,31.5742h5.5312V337.3248h35.9542V658.1442h-35.9542Zm-76.5166,7.375a74.4888,74.4888,0,0,0,29.961-5.9922,72.1044,72.1044,0,0,0,24.2-17.0547,81.1957,81.1957,0,0,0,16.3633-26.5049,94.2871,94.2871,0,0,0,5.9921-34.34v-5.5313a93.0229,93.0229,0,0,0-5.9921-33.88,81.2866,81.2866,0,0,0-16.3633-26.5048,74.4281,74.4281,0,0,0-24.4307-17.2852,72.6746,72.6746,0,0,0-29.7305-6.2227,76.2437,76.2437,0,0,0-30.1923,5.9922,71.5772,71.5772,0,0,0-24.43,17.0547,78.6484,78.6484,0,0,0-16.1338,26.2744,94.2332,94.2332,0,0,0-5.7617,33.6494v7.375q0,19.3594,5.7617,34.57A76.0525,76.0525,0,0,0,930.42,515.942a70.8515,70.8515,0,0,0,24.1992,16.5938A78.24,78.24,0,0,0,985.0417,538.2975Z"/><path d="M1331.6726,337.3248h35.9541v228.63h-35.9541V524.4694h-5.5312q-11.0625,22.125-29.04,35.0322-17.9766,12.8994-45.6338,12.9062a94.6826,94.6826,0,0,1-34.8008-6.2226,71.2519,71.2519,0,0,1-27.1962-18.668q-11.3-12.4467-17.5157-30.8838-6.2226-18.4307-6.2226-42.8682v-136.44h35.9531V469.1559q0,35.9546,14.751,52.5478,14.7465,16.5938,45.1728,16.5938,32.7233,0,51.3955-22.3555,18.6681-22.3521,18.668-59.6924Z"/><path d="M1476.8708,462.7027q1.3829,34.1178,21.2042,54.8526,19.8133,20.7422,55.3134,20.7422,16.1295,0,28.1172-3.6875a65.5779,65.5779,0,0,0,20.5127-10.1406,55.4423,55.4423,0,0,0,13.8281-14.98,85.9549,85.9549,0,0,0,8.5274-18.207l34.11,9.2187a100.9737,100.9737,0,0,1-35.7236,51.8564q-26.0465,20.0508-70.2939,20.0508a115.9463,115.9463,0,0,1-44.9424-8.5273,100.9606,100.9606,0,0,1-35.2627-24.2,112.2868,112.2868,0,0,1-23.0469-37.3359q-8.297-21.6607-8.2969-47.9385V443.3434a116.35,116.35,0,0,1,8.5274-44.7119,106.1164,106.1164,0,0,1,23.7382-35.7237A111.2617,111.2617,0,0,1,1508.907,339.4a114.7362,114.7362,0,0,1,44.4814-8.5283q28.11,0,48.63,10.3721,20.5049,10.371,33.6484,25.582a101.0864,101.0864,0,0,1,19.36,33.1885q6.2226,17.9765,6.2227,33.1875v29.5009Zm76.5176-97.7207a81.3729,81.3729,0,0,0-28.3486,4.84,71.59,71.59,0,0,0-39.1807,34.11,75.4381,75.4381,0,0,0-8.0664,25.5821h147.503a66.4146,66.4146,0,0,0-7.1446-26.7344,65.51,65.51,0,0,0-16.1328-20.2822,74.6845,74.6845,0,0,0-22.5869-12.9063A75.7825,75.7825,0,0,0,1553.3884,364.982Z"/><path d="M1732.696,532.7662h82.97V276.48h-80.2041V243.2926H1851.62V532.7662h82.9707v33.1885H1732.696Z"/><polygon points="2239.946 565.955 2145.946 481.706 2051.946 565.955 2051.946 308.204 2145.946 223.955 2239.946 308.204 2239.946 565.955"/><path class="cls-1" d="M2145.574,386.4039,2145.9927,0"/><line class="cls-1" x1="2120.5687" y1="1.1128" x2="2145.9927" y2="145.2169"/><line class="cls-1" x1="2095.9409" y1="7.7135" x2="2145.9927" y2="145.2169"/><line class="cls-1" x1="2072.7088" y1="18.506" x2="2145.8985" y2="145.2169"/><line class="cls-1" x1="2051.9456" y1="33.1119" x2="2145.9927" y2="145.2169"/><line class="cls-1" x1="2171.3226" y1="1.1128" x2="2145.8985" y2="145.2169"/><line class="cls-1" x1="2195.9504" y1="7.7135" x2="2145.8985" y2="145.2169"/><line class="cls-1" x1="2219.1824" y1="18.506" x2="2145.9927" y2="145.2169"/><line class="cls-1" x1="2239.9456" y1="33.1119" x2="2145.8985" y2="145.2169"/></svg>