<svg id="Layer_1" data-name="Layer 1" xmlns="http://www.w3.org/2000/svg" width="2246.2605" height="661.7341" viewBox="0 0 2246.2605 661.7341"><defs><style>.cls-1{fill:#fff;}.cls-2{fill:none;stroke:#fff;stroke-miterlimit:10;stroke-width:10px;}</style></defs><title>anaquel-logos-03</title><path class="cls-1" d="M210.1912,485.75H71.907L48.3992,565.9547H6.9138l97.7207-322.6621h72.83l97.72,322.6621H233.7ZM138.2839,259.8863,82.51,449.7965H199.59l-55.7744-189.91Z"/><path class="cls-1" d="M358.155,565.9547H322.2009v-228.63H358.155v38.72h5.5313q21.1962-45.1685,73.751-45.1728,39.6373,0,63.1494,24.6611,23.5092,24.6636,23.5088,73.9815v136.44H488.1414V436.8893q0-35.9532-16.1329-53.9307-16.1412-17.9766-43.79-17.9766-32.7348,0-51.3955,22.3555-18.6679,22.3638-18.668,59.6934Z"/><path class="cls-1" d="M770.241,527.235H764.71q-11.0625,23.0552-30.6533,34.11a82.6937,82.6937,0,0,1-41.2539,11.0625,113.6972,113.6972,0,0,1-41.9463-7.6054,95.0444,95.0444,0,0,1-33.88-22.586q-14.52-14.9736-22.8164-36.6455-8.2983-21.6608-8.2978-50.2432v-7.375q0-28.11,8.2978-49.7822,8.2969-21.6608,22.8164-36.6455a97.864,97.864,0,0,1,33.88-22.8164,108.3217,108.3217,0,0,1,41.0244-7.837q23.5079,0,42.6367,10.3721,19.1223,10.371,30.1924,32.0351h5.5313V337.3248h35.9541V518.9381q0,13.8282,12.4453,13.8281h11.5234v33.1885h-24.43q-15.6766,0-25.583-10.1406-9.917-10.1338-9.91-25.8135ZM696.49,538.2975a72.8707,72.8707,0,0,0,29.7305-5.9922,65.7761,65.7761,0,0,0,23.2783-17.0547A81.4183,81.4183,0,0,0,764.71,488.7457a101.2306,101.2306,0,0,0,5.5313-34.34v-5.5313a99.857,99.857,0,0,0-5.5313-33.88A79.3346,79.3346,0,0,0,749.2683,388.49,70.84,70.84,0,0,0,725.76,371.2047a69.5162,69.5162,0,0,0-29.27-6.2227,71.3542,71.3542,0,0,0-29.501,5.9922,70.13,70.13,0,0,0-23.2773,16.8243,76.666,76.666,0,0,0-15.4424,26.2744,99.8574,99.8574,0,0,0-5.5313,33.88v7.375q0,39.1831,20.5127,61.0752Q663.7557,538.301,696.49,538.2975Z"/><path class="cls-1" d="M1061.5583,530.9225h-5.5312a70.9,70.9,0,0,1-14.52,18.208,94.84,94.84,0,0,1-18.4375,12.9062,84.9176,84.9176,0,0,1-20.7432,7.836,92.2453,92.2453,0,0,1-20.9728,2.5351,115.5618,115.5618,0,0,1-42.8681-7.8359,102.9137,102.9137,0,0,1-34.8018-22.5859Q888.7,527.2379,880.1759,505.34q-8.5356-21.8877-8.5273-50.0127v-7.375q0-27.6576,8.7578-49.5517,8.751-21.8877,23.5078-36.876a99.1487,99.1487,0,0,1,34.5713-22.8164,113.0742,113.0742,0,0,1,41.9463-7.8369,90.2526,90.2526,0,0,1,43.56,10.833,81.1457,81.1457,0,0,1,32.0352,31.5742h5.5312V337.3248h35.9543V658.1442h-35.9543Zm-76.5166,7.375a74.4893,74.4893,0,0,0,29.961-5.9922,72.105,72.105,0,0,0,24.2-17.0547,81.1941,81.1941,0,0,0,16.3632-26.5049,94.2855,94.2855,0,0,0,5.9921-34.34v-5.5313a93.0214,93.0214,0,0,0-5.9921-33.88,81.2862,81.2862,0,0,0-16.3632-26.5048,74.4276,74.4276,0,0,0-24.4308-17.2852,72.675,72.675,0,0,0-29.7305-6.2227,76.2444,76.2444,0,0,0-30.1923,5.9922,71.5766,71.5766,0,0,0-24.43,17.0547,78.6486,78.6486,0,0,0-16.1338,26.2744,94.2338,94.2338,0,0,0-5.7617,33.6494v7.375q0,19.3593,5.7617,34.57A76.05,76.05,0,0,0,930.42,515.942a70.8509,70.8509,0,0,0,24.1992,16.5938,78.24,78.24,0,0,0,30.4225,5.7617Z"/><path class="cls-1" d="M1331.6726,337.3248h35.9541v228.63h-35.9541V524.4694h-5.5312q-11.0625,22.125-29.04,35.0322-17.9766,12.9-45.6338,12.9062a94.6815,94.6815,0,0,1-34.8008-6.2226,71.25,71.25,0,0,1-27.1961-18.668q-11.3-12.4467-17.5158-30.8838-6.2226-18.4307-6.2226-42.8682v-136.44h35.9531V469.1559q0,35.9546,14.751,52.5478,14.7463,16.5939,45.1728,16.5938,32.7234,0,51.3955-22.3555,18.6682-22.3521,18.668-59.6924Z"/><path class="cls-1" d="M1476.8708,462.7027q1.383,34.1178,21.2043,54.8526,19.8135,20.7422,55.3133,20.7422,16.13,0,28.1172-3.6875a65.5776,65.5776,0,0,0,20.5127-10.1406,55.4421,55.4421,0,0,0,13.8281-14.98,85.9506,85.9506,0,0,0,8.5274-18.207l34.11,9.2187a100.974,100.974,0,0,1-35.7237,51.8564q-26.0463,20.0508-70.2939,20.0508a115.9463,115.9463,0,0,1-44.9424-8.5273,100.96,100.96,0,0,1-35.2627-24.2,112.2863,112.2863,0,0,1-23.0469-37.3359q-8.2968-21.6608-8.2968-47.9385V443.3434a116.35,116.35,0,0,1,8.5273-44.7119,106.1171,106.1171,0,0,1,23.7382-35.7237A111.2613,111.2613,0,0,1,1508.907,339.4a114.7352,114.7352,0,0,1,44.4814-8.5283q28.11,0,48.63,10.3721,20.505,10.371,33.6485,25.582a101.09,101.09,0,0,1,19.36,33.1885q6.2226,17.9766,6.2226,33.1875v29.5009Zm76.5176-97.7207a81.3715,81.3715,0,0,0-28.3486,4.84,71.59,71.59,0,0,0-39.1807,34.11,75.4408,75.4408,0,0,0-8.0664,25.5821h147.5031a66.4156,66.4156,0,0,0-7.1447-26.7344,65.508,65.508,0,0,0-16.1328-20.2822,74.6827,74.6827,0,0,0-22.5869-12.9063A75.7838,75.7838,0,0,0,1553.3884,364.982Z"/><path class="cls-1" d="M1732.696,532.7662h82.97V276.48h-80.2041V243.2926H1851.62V532.7662h82.9707v33.1885H1732.696Z"/><polygon class="cls-1" points="2239.946 565.955 2145.946 481.706 2051.946 565.955 2051.946 308.204 2145.946 223.955 2239.946 308.204 2239.946 565.955"/><path class="cls-2" d="M2145.574,386.4039,2145.9927,0"/><line class="cls-2" x1="2120.5686" y1="1.1128" x2="2145.9927" y2="145.2169"/><line class="cls-2" x1="2095.9409" y1="7.7135" x2="2145.9927" y2="145.2169"/><line class="cls-2" x1="2072.7087" y1="18.506" x2="2145.8984" y2="145.2169"/><line class="cls-2" x1="2051.9456" y1="33.1119" x2="2145.9927" y2="145.2169"/><line class="cls-2" x1="2171.3225" y1="1.1128" x2="2145.8984" y2="145.2169"/><line class="cls-2" x1="2195.9504" y1="7.7135" x2="2145.8984" y2="145.2169"/><line class="cls-2" x1="2219.1824" y1="18.506" x2="2145.9927" y2="145.2169"/><line class="cls-2" x1="2239.9456" y1="33.1119" x2="2145.8984" y2="145.2169"/></svg>