<?xml version="1.0" encoding="utf-8"?>
<!-- Generator: Adobe Illustrator 23.0.6, SVG Export Plug-In . SVG Version: 6.00 Build 0)  -->
<svg version="1.1" id="Layer_1" xmlns="http://www.w3.org/2000/svg" xmlns:xlink="http://www.w3.org/1999/xlink" x="0px" y="0px"
	 viewBox="0 0 1371.4 352.8" style="enable-background:new 0 0 1371.4 352.8;" xml:space="preserve">
<style type="text/css">
	.st0{fill:#FFFFFF;}
	.st1{fill:#FFFFFF;stroke:#FFC74B;stroke-width:20;stroke-linecap:round;stroke-miterlimit:10;}
	.st2{fill:#FFC74B;}
	.st3{fill:none;stroke:#FFC74B;stroke-width:10;stroke-miterlimit:10;}
	.st4{fill:none;stroke:#FFC74B;stroke-width:3;stroke-miterlimit:10;}
	.st5{fill:none;stroke:#59C74B;stroke-width:3;stroke-miterlimit:10;}
	.st6{fill:#FFFFFF;stroke:#FFC74B;stroke-width:3;stroke-miterlimit:10;}
	.st7{fill:#FFC74B;stroke:#FFC74B;stroke-width:20;stroke-miterlimit:10;}
	.st8{fill:#FFFFFF;stroke:#FFFFFF;stroke-width:60;stroke-miterlimit:10;}
	.st9{fill:#FFFFFF;stroke:#FFC74B;stroke-width:20;stroke-miterlimit:10;}
	.st10{fill:#FFFFFF;stroke:#FFC74B;stroke-width:20;stroke-linejoin:bevel;stroke-miterlimit:10;}
	.st11{fill:#FFC74B;stroke:#FFC74B;stroke-width:20;stroke-linecap:square;stroke-linejoin:bevel;stroke-miterlimit:10;}
	.st12{fill:#FFFFFF;stroke:#FFC74B;stroke-width:30;stroke-linecap:square;stroke-linejoin:bevel;stroke-miterlimit:10;}
	.st13{fill:#FFC74B;stroke:#FFC74B;stroke-width:5;stroke-miterlimit:10;}
	.st14{fill:#F0F0F0;}
	.st15{fill:#F0BB26;stroke:#F0BB26;stroke-width:5;stroke-miterlimit:10;}
	.st16{fill:#F0BB26;}
	.st17{fill:#F0BB26;stroke:#F0BB26;stroke-miterlimit:10;}
</style>
<g>
	<path class="st15" d="M4.1,52.6h105.7c19.4,0,35.2,6.2,47.5,18.5c12.3,12.3,18.5,29.5,18.5,51.5c0,22-5.7,38.8-17.2,50.2
		c-11.5,11.5-27.7,17.2-48.9,17.2H37.5v87.6H4.1V52.6z M37.5,81.7v79.2h65.7c12.3,0,22-3.5,29.1-10.6c7.9-7.9,11.9-14.5,11.9-27.7
		c0-15-3.5-22-10.6-29c-7.9-7.9-18.1-11.9-30.4-11.9H37.5z"/>
	<path class="st15" d="M216.2,111.5c11.8-11.8,29-17.7,51.6-17.7c26.8,0,46.2,5.9,58,17.7c10.7,10.8,16.1,23.1,16.1,37.1v101.5
		c0,11.8,0,21.6,5.5,28.4h-33.7c-3.5-3.9-4-12.3-4-21.9c-16.1,16.1-36.5,24.2-61.2,24.2c-20.4,0-36-5.4-46.7-16.1
		c-9.7-9.7-14.5-20.9-14.5-33.8c0-15,4.8-27.4,14.5-37.1c10.7-10.7,25.8-17.7,45.1-20.9c12.9-2.1,24.2-4.8,33.8-8.1
		c13.9-3.2,23.6-6.4,29-9.7c0-8.6-3.2-16.1-9.7-22.6c-6.4-6.4-15.6-9.7-27.4-9.7c-15.1,0-25.8,3.2-32.2,9.7
		c-4.3,4.3-8.4,11.4-9.7,19.7h-35.5C197.6,136,205.4,122.3,216.2,111.5z M309.6,185.7c-6.4,2.2-12.4,3.8-17.7,4.8
		c-18.3,4.3-32.2,7.5-41.9,9.7c-8.6,2.2-15.1,5.4-19.3,9.7c-5.4,5.4-8.1,11.3-8.1,17.7c0,7.5,2.7,14,8.1,19.3
		c3.2,3.2,10.2,4.8,20.9,4.8c18.3,0,33.3-5.9,45.1-17.7c7.5-7.5,11.8-12.9,12.9-16.1V185.7z"/>
	<path class="st15" d="M399.6,197.7c-10.8-11.3-17.7-25.8-17.7-41.9c0-18.3,5.9-33.3,17.7-45.1C411.4,98.9,426.5,93,444.7,93
		c17.2,0,32.2,5.4,45.1,16.1C500.6,98.4,513.5,93,528.5,93H543v30.6c-12.9-5.4-27.4-5.9-43.5-1.6c7.5,9.7,11.3,20.9,11.3,33.8
		c0,19.3-5.9,34.9-17.7,46.7c-10.8,10.8-26.3,16.1-46.7,16.1c-10.8,0-28.8-5.2-38.6-12.8C405,203.7,401.8,200.1,399.6,197.7z
		 M425.4,128.4c-7.5,7.5-11.3,16.7-11.3,27.4c0,10.8,3.2,19.3,9.7,25.8s13.9,9.7,22.6,9.7c9.7,0,17.2-2.7,22.6-8.1
		c6.4-6.4,9.7-15.6,9.7-27.4c0-10.7-3.8-19.9-11.3-27.4c-5.4-5.4-12.9-8.1-22.6-8.1C437.2,120.4,430.8,123.1,425.4,128.4z"/>
	<path class="st15" d="M567.6,97h32.2v120.9c0,12.9,3.2,22.6,9.7,29c5.4,5.4,12.9,8.1,22.6,8.1c13.9,0,26.3-5.4,37.1-16.1
		c16.1-16.1,24.2-32.8,24.2-50V97h32.2v180.5h-32.2v-32.2c-17.2,23.6-38.1,35.5-62.8,35.5c-22.6,0-38.7-4.8-48.3-14.5
		s-14.5-22-14.5-37.1V97z"/>
	<path class="st15" d="M757.1,3.6h32.2v41.9h-32.2V3.6z M757.1,97h32.2v180.5h-32.2V97z"/>
	<path class="st15" d="M851.1,277.5h-32.2V97h32.2v32.2c19.3-23.6,39.7-35.5,61.2-35.5c21.5,0,38.7,6.4,51.6,19.3
		c8.6,8.6,12.9,18.8,12.9,30.6v133.8h-32.2V153.4c0-9.7-3.2-17.7-9.7-24.2c-6.4-6.4-15.6-9.7-27.4-9.7c-10.8,0-21.5,5.4-32.2,16.1
		c-16.1,16.1-24.2,33.3-24.2,51.6V277.5z"/>
	<path class="st15" d="M1030.7,116.4c15-15,34.4-22.6,58-22.6c22.6,0,41.9,8.1,58,24.2c15,15.1,22.6,38.1,22.6,69.3h-130.5
		c0,22.6,5.4,39.2,16.1,50c9.7,9.7,22,14.5,37.1,14.5c15,0,25.8-3.2,32.2-9.7c7.5-7.5,10-16.4,11.3-25.8h33.5
		c-2.2,19.7-9.3,33.8-18.9,43.5c-14,14-33.3,20.9-58,20.9c-25.8,0-46.7-8.1-62.8-24.2c-17.2-17.2-25.8-40.3-25.8-69.3
		S1012.4,134.7,1030.7,116.4z M1054.9,134.1c-7.5,7.5-12.4,16.7-14.5,27.4h91.9c0-10.7-4.3-20.4-12.9-29
		c-7.5-7.5-18.3-11.3-32.2-11.3C1074.2,121.2,1063.5,125.5,1054.9,134.1z"/>
	<path class="st15" d="M1221.4,118c16.1-16.1,36-24.2,59.6-24.2c23.6,0,43.5,8.1,59.6,24.2c18.3,18.3,27.4,41.4,27.4,69.3
		c0,27.9-9.1,51-27.4,69.3c-16.1,16.1-36,24.2-59.6,24.2c-23.6,0-43.5-8.1-59.6-24.2c-18.3-18.3-27.4-41.3-27.4-69.3
		C1194,159.4,1203.1,136.3,1221.4,118z M1248.8,135.7c-12.9,12.9-19.3,30.1-19.3,51.6c0,21.5,5.9,38.1,17.7,50
		c9.7,9.7,20.9,14.5,33.8,14.5s24.2-4.8,33.8-14.5c11.8-11.8,17.7-28.5,17.7-50c0-21.5-6.4-38.7-19.3-51.6
		c-8.6-8.6-19.3-12.9-32.2-12.9S1257.3,127.1,1248.8,135.7z"/>
</g>
<g>
	<path class="st16" d="M404.6,254.6c1,0,1.8,0.5,2.3,1.3c0.4,0.6,0.7,1.2,1,1.8c1.9,4,4.4,7.7,7.9,10.5c1.4,1.1,2.7,2.2,4.1,3.3
		c5.5,4.3,11.5,8,17.5,11.6c10.1,6,20.9,10.3,32.3,12.8c9,2,18.2,2.9,27.4,3.1c1.3,0,2.6,0.1,3.8,0.3c2.5,0.4,4,2.1,4.2,4.6
		c0.2,2.4-0.6,4.5-2.3,6.1c-2.3,2.3-5.1,3.8-7.3,5.1c-5.7,3-12.3,5-18.4,5.7c-2.5,0.3-4.9,0.4-7.4,0.4c-5.6,0-11.2-0.7-16.7-2.2
		c-0.7-0.2-1.5-0.4-2.2-0.6c-11.2-3.4-21-9.2-29.4-17.4c-5.4-5.4-9.7-11.5-12.3-18.7c-1.3-3.6-2-7.3-2.6-11c-0.6-3.5-2-6.5-4.5-9
		c-0.7-0.7-1.3-1.4-1.8-2.2c-0.8-1.2-0.7-2.4,0.1-3.5c1-1.2,2.3-2,3.9-2.1C404.4,254.6,404.5,254.6,404.6,254.6 M404.6,224.1
		c-1.3,0-2.7,0.1-4,0.2c-9.5,1.1-18,5.8-24,13.3c-9.3,11.5-10,27.4-1.7,39.7c0.7,1,1.4,2,2.2,2.9c0.8,4.1,1.8,8.3,3.5,12.9
		c4.1,11,10.7,21.1,19.5,29.8c11.7,11.6,25.8,19.9,41.9,24.8c1.1,0.3,2.2,0.6,3.3,0.9c8,2.1,16.3,3.2,24.6,3.2
		c3.6,0,7.2-0.2,10.8-0.6c10.1-1.1,20.2-4.2,29.3-9l1.4-0.8l0.5-0.3c3-1.8,7.9-4.7,12.7-9.5c8.2-8.1,12.1-18.9,11.2-30.3
		c-1.4-16.7-13.4-29.6-29.9-32.2c-3.2-0.5-6-0.6-7.8-0.6c-8-0.2-15.1-1-21.6-2.4c-8.2-1.8-15.8-4.8-23.3-9.3
		c-4.8-2.9-9.9-6-14.3-9.4c-0.5-0.4-1.1-0.9-1.6-1.3c-0.5-0.4-0.9-0.8-1.4-1.1c-0.1-0.1-0.2-0.3-0.3-0.5c-0.4-0.9-1.4-2.8-2.7-4.9
		C426.5,229.9,416.1,224.1,404.6,224.1L404.6,224.1z"/>
</g>
</svg>
