<?xml version="1.0" encoding="utf-8"?>
<!-- Generator: Adobe Illustrator 23.0.6, SVG Export Plug-In . SVG Version: 6.00 Build 0)  -->
<svg version="1.1" id="Layer_1" xmlns="http://www.w3.org/2000/svg" xmlns:xlink="http://www.w3.org/1999/xlink" x="0px" y="0px"
	 viewBox="0 0 175.5 260.4" style="enable-background:new 0 0 175.5 260.4;" xml:space="preserve">
<style type="text/css">
	.st0{fill:#FFFFFF;}
	.st1{fill:#FFFFFF;stroke:#FFC74B;stroke-width:20;stroke-linecap:round;stroke-miterlimit:10;}
	.st2{fill:#FFC74B;}
	.st3{fill:none;stroke:#FFC74B;stroke-width:10;stroke-miterlimit:10;}
	.st4{fill:none;stroke:#FFC74B;stroke-width:3;stroke-miterlimit:10;}
	.st5{fill:none;stroke:#59C74B;stroke-width:3;stroke-miterlimit:10;}
	.st6{fill:#FFFFFF;stroke:#FFC74B;stroke-width:3;stroke-miterlimit:10;}
	.st7{fill:#FFC74B;stroke:#FFC74B;stroke-width:20;stroke-miterlimit:10;}
	.st8{fill:#FFFFFF;stroke:#FFFFFF;stroke-width:60;stroke-miterlimit:10;}
	.st9{fill:#FFFFFF;stroke:#FFC74B;stroke-width:20;stroke-miterlimit:10;}
	.st10{fill:#FFFFFF;stroke:#FFC74B;stroke-width:20;stroke-linejoin:bevel;stroke-miterlimit:10;}
	.st11{fill:#FFC74B;stroke:#FFC74B;stroke-width:20;stroke-linecap:square;stroke-linejoin:bevel;stroke-miterlimit:10;}
	.st12{fill:#FFFFFF;stroke:#FFC74B;stroke-width:30;stroke-linecap:square;stroke-linejoin:bevel;stroke-miterlimit:10;}
	.st13{fill:#FFC74B;stroke:#FFC74B;stroke-width:5;stroke-miterlimit:10;}
	.st14{fill:#F0F0F0;}
	.st15{fill:#F0BB26;stroke:#F0BB26;stroke-width:5;stroke-miterlimit:10;}
	.st16{fill:#F0BB26;}
	.st17{fill:#F0BB26;stroke:#F0BB26;stroke-miterlimit:10;}
</style>
<g>
	<path class="st17" d="M31.1,105.7C20.3,94.4,13.4,79.9,13.4,63.8c0-18.3,5.9-33.3,17.7-45.1C42.9,6.9,58,0.9,76.2,0.9
		c17.2,0,32.2,5.4,45.1,16.1C132.1,6.3,145,0.9,160,0.9h14.5v30.6c-12.9-5.4-27.4-5.9-43.5-1.6c7.5,9.7,11.3,20.9,11.3,33.8
		c0,19.3-5.9,34.9-17.7,46.7c-10.8,10.8-26.3,16.1-46.7,16.1c-10.8,0-28.8-5.2-38.6-12.8C36.5,111.7,33.4,108,31.1,105.7z
		 M56.9,36.4c-7.5,7.5-11.3,16.7-11.3,27.4c0,10.8,3.2,19.3,9.7,25.8s13.9,9.7,22.6,9.7c9.7,0,17.2-2.7,22.6-8.1
		c6.4-6.4,9.7-15.6,9.7-27.4c0-10.7-3.8-19.9-11.3-27.4c-5.4-5.4-12.9-8.1-22.6-8.1C68.7,28.3,62.3,31,56.9,36.4z"/>
</g>
<g>
	<path class="st16" d="M36.1,162.6c1,0,1.8,0.5,2.3,1.3c0.4,0.6,0.7,1.2,1,1.8c1.9,4,4.4,7.7,7.9,10.5c1.4,1.1,2.7,2.2,4.1,3.3
		c5.5,4.3,11.5,8,17.5,11.6c10.1,6,20.9,10.3,32.3,12.8c9,2,18.2,2.9,27.4,3.1c1.3,0,2.6,0.1,3.8,0.3c2.5,0.4,4,2.1,4.2,4.6
		c0.2,2.4-0.6,4.5-2.3,6.1c-2.3,2.3-5.1,3.8-7.3,5.1c-5.7,3-12.3,5-18.4,5.7c-2.5,0.3-4.9,0.4-7.4,0.4c-5.6,0-11.2-0.7-16.7-2.2
		c-0.7-0.2-1.5-0.4-2.2-0.6c-11.2-3.4-21-9.2-29.4-17.4c-5.4-5.4-9.7-11.5-12.3-18.7c-1.3-3.6-2-7.3-2.6-11c-0.6-3.5-2-6.5-4.5-9
		c-0.7-0.7-1.3-1.4-1.8-2.2c-0.8-1.2-0.7-2.4,0.1-3.5c1-1.2,2.3-2,3.9-2.1C35.9,162.6,36,162.6,36.1,162.6 M36.1,132.1
		c-1.3,0-2.7,0.1-4,0.2c-9.5,1.1-18,5.8-24,13.3c-9.3,11.5-10,27.4-1.7,39.7c0.7,1,1.4,2,2.2,2.9c0.8,4.1,1.8,8.3,3.5,12.9
		c4.1,11,10.7,21.1,19.5,29.8c11.7,11.6,25.8,19.9,41.9,24.8c1.1,0.3,2.2,0.6,3.3,0.9c8,2.1,16.3,3.2,24.6,3.2
		c3.6,0,7.2-0.2,10.8-0.6c10.1-1.1,20.2-4.2,29.3-9l1.4-0.8l0.5-0.3c3-1.8,7.9-4.7,12.7-9.5c8.2-8.1,12.1-18.9,11.2-30.3
		c-1.4-16.7-13.4-29.6-29.9-32.2c-3.2-0.5-6-0.6-7.8-0.6c-8.1-0.2-15.1-1-21.6-2.4c-8.2-1.8-15.8-4.8-23.3-9.3
		c-4.8-2.9-9.9-6-14.3-9.4c-0.5-0.4-1.1-0.9-1.6-1.3c-0.5-0.4-0.9-0.8-1.4-1.1c-0.1-0.1-0.2-0.3-0.3-0.5c-0.7-1.4-1.5-3.1-2.7-4.9
		C58,137.8,47.6,132.1,36.1,132.1L36.1,132.1z"/>
</g>
</svg>
